<svg width="32" height="32" viewBox="0 0 32 32" fill="none" xmlns="http://www.w3.org/2000/svg">
<rect width="32" height="32" rx="16" fill="white"/>
<path d="M6.70888 10.0835C6.70888 9.99784 6.76374 9.92182 6.84502 9.89482L24.3311 4.08685C24.4598 4.0441 24.5925 4.13991 24.5925 4.27552V17.2761C24.5925 17.3884 24.4615 17.4498 24.3752 17.3779L15.6294 10.0948C15.629 10.0945 15.6283 10.0945 15.6279 10.0949V10.0949V10.0949C15.6276 10.0945 15.6269 10.0945 15.6265 10.0948L6.92623 17.34C6.8399 17.4119 6.70888 17.3505 6.70888 17.2381V10.0835Z" fill="url(#paint0_linear_454_3)"/>
<path d="M6.77666 22.4539C6.73047 22.4923 6.71229 22.5552 6.73144 22.6122C7.97927 26.3253 11.4881 29 15.6217 29C19.7583 29 23.2693 26.3213 24.5148 22.6039C24.5338 22.547 24.5156 22.4842 24.4695 22.4458L15.7128 15.1536C15.6636 15.1126 15.5923 15.1126 15.5431 15.1536L6.77666 22.4539Z" fill="url(#paint1_linear_454_3)"/>
<defs>
<linearGradient id="paint0_linear_454_3" x1="17.5454" y1="6.39107" x2="-10.08" y2="44.9045" gradientUnits="userSpaceOnUse">
<stop stop-color="#45A9C9"/>
<stop offset="0.932292" stop-color="#912BC4"/>
</linearGradient>
<linearGradient id="paint1_linear_454_3" x1="17.5454" y1="6.39107" x2="-10.08" y2="44.9045" gradientUnits="userSpaceOnUse">
<stop stop-color="#45A9C9"/>
<stop offset="0.932292" stop-color="#912BC4"/>
</linearGradient>
</defs>
</svg>
