<svg width="124" height="33" viewBox="0 0 124 33" fill="none" xmlns="http://www.w3.org/2000/svg">
    <path d="M26.4623 25.7358L26.195 21.7266C27.3857 23.9135 30.107 25.2742 33.0471 25.2742C35.3797 25.2742 36.3274 24.448 36.3274 23.0387C36.3274 21.7023 35.1125 20.6332 32.3182 20.2931C28.3333 19.8071 26.0007 17.9361 26.0007 15.069C26.0007 12.1046 28.6978 10.1121 32.3425 10.1121C34.8209 10.1121 37.2021 10.8654 38.417 12.1046L38.5385 15.3119C37.0077 13.7569 34.5779 12.8092 32.3425 12.8092C30.5687 12.8092 29.4024 13.4653 29.4024 14.6316C29.4024 15.8951 30.6659 16.9399 33.1443 17.2315C37.3965 17.7417 40.0207 19.8314 40.0207 22.893C40.0207 25.9545 37.3722 27.9227 33.0471 27.9227C29.8155 27.9227 27.4585 26.9021 26.4623 25.7358ZM44.5586 21.4594C44.5586 24.0593 45.895 25.3471 48.2519 25.3471C49.9042 25.3471 51.5322 23.9378 51.5322 21.3379C51.5322 18.738 49.9042 17.353 48.2519 17.353C45.895 17.353 44.5586 18.8595 44.5586 21.4594ZM41.9101 21.3379C41.9101 17.3773 44.2913 14.7531 47.8632 14.7531C49.151 14.7531 50.4631 15.2876 51.5322 16.2353V14.9961H54.2536V27.6797H51.5322V26.562C50.4631 27.4367 49.151 27.9227 47.8632 27.9227C44.2913 27.9227 41.9101 25.2985 41.9101 21.3379ZM72.9466 27.6797C72.9466 27.6797 72.9709 22.2855 72.9466 19.9772C72.9466 18.7137 71.9747 17.7417 70.4925 17.7417C68.7673 17.7417 67.7468 18.3492 67.7468 19.9772V27.6797H65.0497C65.0497 27.6797 65.074 22.2855 65.0497 19.9772C65.0497 18.738 64.0778 17.7417 62.6928 17.7417C61.0648 17.7417 60.02 18.3249 60.02 19.8314V27.6797H57.3229V14.9961H60.02V16.3325C60.9676 15.3848 62.3526 14.8746 63.7862 14.8746C65.3413 14.8746 66.5562 15.6278 67.2123 17.0857C68.087 15.6764 69.6907 14.8746 71.513 14.8746C74.0157 14.8746 75.668 16.5997 75.668 19.9772V27.6797H72.9466ZM89.7736 23.9864L89.725 25.9788C88.996 27.0965 87.3923 27.9227 84.8896 27.9227C80.7833 27.9227 78.0376 25.8816 78.0376 21.3379C78.0376 16.7941 80.5646 14.7531 84.3308 14.7531C88.4858 14.7531 90.3324 17.6203 90.1137 21.9453H87.3923C87.4166 21.5566 87.3923 21.1921 87.3923 20.8276V21.9453H81.0019C81.1963 24.448 82.7028 25.5657 84.8896 25.5657C87.4409 25.5657 88.583 24.3994 89.7736 23.9864ZM87.3438 20.2445C87.1008 18.1791 86.1045 16.867 84.3308 16.867C82.5813 16.867 81.3178 17.9118 81.0505 20.2445H87.3438ZM92.9809 10.3551H96.0182V20.4631C96.0182 23.549 97.4518 25.1284 100.222 25.1284C103.016 25.1284 104.45 23.549 104.45 20.4631L104.425 10.3551H107.463V20.9977C107.463 25.5657 105.009 27.9227 100.222 27.9227C95.435 27.9227 92.9809 25.5657 92.9809 20.9977V10.3551ZM110.434 32.0291V14.9961H113.131V16.2353C114.394 15.239 115.998 14.7531 117.48 14.7531C120.639 14.7531 122.753 17.3773 122.753 21.3379C122.753 25.2985 120.639 27.9227 117.48 27.9227C115.998 27.9227 114.394 27.4853 113.131 26.562V32.0291H110.434ZM113.131 21.3379C113.131 24.3508 114.88 25.4686 116.946 25.4686C118.89 25.4686 120.25 23.9621 120.25 21.3622C120.25 18.7623 118.962 17.2072 117.019 17.2072C114.953 17.2072 113.131 18.3249 113.131 21.3379Z" fill="white"/>
    <path d="M0.00948892 6.64665C0.00948892 6.55308 0.0694218 6.47002 0.158229 6.44052L19.263 0.094887C19.4036 0.0481848 19.5487 0.152862 19.5487 0.301021V14.5051C19.5487 14.6278 19.4055 14.6949 19.3112 14.6163L9.7558 6.65904C9.75533 6.65865 9.75463 6.65869 9.75421 6.65914C9.7538 6.65869 9.7531 6.65865 9.75263 6.65904L0.246957 14.5749C0.152633 14.6535 0.00948892 14.5864 0.00948892 14.4636V6.64665Z" fill="white"/>
    <path d="M0.0835403 20.1622C0.0330812 20.2042 0.0132152 20.2729 0.0341329 20.3352C1.39749 24.392 5.23118 27.3143 9.74741 27.3143C14.267 27.3143 18.103 24.3877 19.4637 20.3262C19.4845 20.2639 19.4647 20.1953 19.4143 20.1533L9.84688 12.1861C9.79319 12.1414 9.71524 12.1414 9.66155 12.1861L0.0835403 20.1622Z" fill="white"/>
    <path d="M0.00948892 6.64665C0.00948892 6.55308 0.0694218 6.47002 0.158229 6.44052L19.263 0.094887C19.4036 0.0481848 19.5487 0.152862 19.5487 0.301021V14.5051C19.5487 14.6278 19.4055 14.6949 19.3112 14.6163L9.7558 6.65904C9.75533 6.65865 9.75463 6.65869 9.75421 6.65914C9.7538 6.65869 9.7531 6.65865 9.75263 6.65904L0.246957 14.5749C0.152633 14.6535 0.00948892 14.5864 0.00948892 14.4636V6.64665Z" fill="white"/>
</svg>